<svg xmlns="http://www.w3.org/2000/svg" xmlns:v="https://svgstorm.com"
viewBox = "0 0 512 512"
width="512"
height="512">
<g fill="None" fill-opacity="0.0" stroke="#000000" stroke-opacity="0.08" stroke-width="0.3"><path d="
M 0.00 22.00 
C 5.05 2.80 26.11 11.01 47.00 10.00 C 67.89 8.99 93.98 10.44 116.00 10.00 C 138.02 9.56 162.51 10.16 185.00 10.00 C 207.49 9.84 231.38 9.98 254.00 10.00 C 276.62 10.02 300.51 9.78 323.00 10.00 C 345.49 10.22 369.97 9.44 392.00 10.00 C 414.03 10.56 440.07 8.73 461.00 10.00 C 481.93 11.27 506.19 2.18 512.00 22.00
L 512.00 0.00
L 0.00 0.00
L 0.00 22.00 Z"/>
</g>
<g fill="None" fill-opacity="0.0" stroke="#000000" stroke-opacity="1.00" stroke-width="0.3"><path d="
M 0.00 22.00 
L 0.00 490.00
C 4.40 508.50 23.34 501.22 44.00 502.00 C 64.66 502.78 90.17 501.67 112.00 502.00 C 133.83 502.33 158.69 501.89 181.00 502.00 C 203.31 502.11 226.56 502.04 249.00 502.00 C 271.44 501.96 294.58 502.22 317.00 502.00 C 339.42 501.78 363.87 502.54 386.00 502.00 C 408.13 501.46 432.66 503.25 454.00 502.00 C 475.34 500.75 496.32 507.65 511.00 496.00
C 510.01 494.41 510.67 491.26 512.00 490.00
L 512.00 22.00
C 506.19 2.18 481.93 11.27 461.00 10.00 C 440.07 8.73 414.03 10.56 392.00 10.00 C 369.97 9.44 345.49 10.22 323.00 10.00 C 300.51 9.78 276.62 10.02 254.00 10.00 C 231.38 9.98 207.49 9.84 185.00 10.00 C 162.51 10.16 138.02 9.56 116.00 10.00 C 93.98 10.44 67.89 8.99 47.00 10.00 C 26.11 11.01 5.05 2.80 0.00 22.00
M 504.00 91.00 
C 338.67 91.00 173.33 91.00 8.00 91.00
C 8.26 77.99 7.65 61.68 8.00 49.00 C 8.35 36.32 3.14 16.26 19.00 17.00 C 34.86 17.74 46.98 16.67 62.00 17.00 C 77.02 17.33 90.35 16.85 105.00 17.00 C 119.65 17.15 133.52 16.93 148.00 17.00 C 162.48 17.07 176.60 16.97 191.00 17.00 C 205.40 17.03 219.62 17.00 234.00 17.00 C 248.38 17.00 262.62 17.02 277.00 17.00 C 291.38 16.98 305.58 17.05 320.00 17.00 C 334.42 16.95 348.49 17.11 363.00 17.00 C 377.51 16.89 391.28 17.24 406.00 17.00 C 420.72 16.76 433.82 17.54 449.00 17.00 C 464.18 16.46 475.78 18.20 492.00 17.00 C 508.22 15.80 504.08 34.75 504.00 48.00 C 503.92 61.25 504.06 77.48 504.00 91.00
M 501.00 495.00 
C 338.65 495.00 173.33 495.00 11.00 495.00
C 4.30 485.12 7.47 471.61 7.00 458.00 C 6.53 444.39 7.21 429.12 7.00 415.00 C 6.79 400.88 7.11 385.34 7.00 371.00 C 6.89 356.66 7.07 342.46 7.00 328.00 C 6.93 313.54 7.09 298.55 7.00 284.00 C 6.91 269.45 7.17 255.68 7.00 241.00 C 6.83 226.32 7.35 211.91 7.00 197.00 C 6.65 182.09 7.78 169.44 7.00 154.00 C 6.22 138.56 8.69 126.53 7.00 110.00 C 5.31 93.47 23.96 98.01 38.00 98.00 C 52.04 97.99 67.71 98.00 82.00 98.00 C 96.29 98.00 110.59 98.00 125.00 98.00 C 139.41 98.00 154.55 98.00 169.00 98.00 C 183.45 98.00 197.53 98.00 212.00 98.00 C 226.47 98.00 241.55 97.99 256.00 98.00 C 270.45 98.01 284.60 97.99 299.00 98.00 C 313.40 98.01 327.60 97.97 342.00 98.00 C 356.40 98.03 371.67 97.93 386.00 98.00 C 400.33 98.07 414.87 97.84 429.00 98.00 C 443.13 98.16 459.30 97.64 473.00 98.00 C 486.70 98.36 506.20 92.87 505.00 109.00 C 503.80 125.13 505.55 137.75 505.00 153.00 C 504.45 168.25 505.25 181.17 505.00 196.00 C 504.75 210.83 505.12 225.36 505.00 240.00 C 504.88 254.64 505.07 268.46 505.00 283.00 C 504.93 297.54 505.07 312.53 505.00 327.00 C 504.93 341.47 505.12 355.63 505.00 370.00 C 504.88 384.37 505.25 399.82 505.00 414.00 C 504.75 428.18 505.56 443.24 505.00 457.00 C 504.44 470.76 507.91 485.38 501.00 495.00 Z"/>
</g>
<g fill="None" fill-opacity="0.0" stroke="#FEDA7B" stroke-opacity="1.00" stroke-width="0.3"><path d="
M 504.00 91.00 
C 504.06 77.48 503.92 61.25 504.00 48.00 C 504.08 34.75 508.22 15.80 492.00 17.00 C 475.78 18.20 464.18 16.46 449.00 17.00 C 433.82 17.54 420.72 16.76 406.00 17.00 C 391.28 17.24 377.51 16.89 363.00 17.00 C 348.49 17.11 334.42 16.95 320.00 17.00 C 305.58 17.05 291.38 16.98 277.00 17.00 C 262.62 17.02 248.38 17.00 234.00 17.00 C 219.62 17.00 205.40 17.03 191.00 17.00 C 176.60 16.97 162.48 17.07 148.00 17.00 C 133.52 16.93 119.65 17.15 105.00 17.00 C 90.35 16.85 77.02 17.33 62.00 17.00 C 46.98 16.67 34.86 17.74 19.00 17.00 C 3.14 16.26 8.35 36.32 8.00 49.00 C 7.65 61.68 8.26 77.99 8.00 91.00
C 173.33 91.00 338.67 91.00 504.00 91.00
M 60.00 32.00 
C 88.21 37.84 77.25 85.91 48.33 77.67 C 19.41 69.43 30.34 25.86 60.00 32.00
M 127.00 32.00 
C 155.79 37.96 144.11 85.96 115.33 77.67 C 86.55 69.38 97.80 25.95 127.00 32.00
M 194.00 32.00 
C 223.13 37.22 212.60 85.35 183.33 77.67 C 154.06 69.99 164.42 26.70 194.00 32.00
M 475.00 51.00 
C 483.48 55.24 469.34 61.41 463.00 59.00 C 456.66 56.59 446.38 60.05 439.00 59.00 C 431.62 57.95 421.80 59.50 414.00 59.00 C 406.20 58.50 398.00 59.24 390.00 59.00 C 382.00 58.76 373.06 59.17 365.00 59.00 C 356.94 58.83 349.05 59.20 341.00 59.00 C 332.95 58.80 325.08 59.37 317.00 59.00 C 308.92 58.63 300.05 59.74 292.00 59.00 C 283.95 58.26 275.92 60.69 268.00 59.00 C 260.08 57.31 250.89 62.76 243.33 58.67 C 235.77 54.58 248.00 48.75 255.00 51.00 C 262.00 53.25 271.34 50.02 279.00 51.00 C 286.66 51.98 296.07 50.53 304.00 51.00 C 311.93 51.47 319.95 50.77 328.00 51.00 C 336.05 51.23 344.93 50.84 353.00 51.00 C 361.07 51.16 368.98 50.82 377.00 51.00 C 385.02 51.18 393.01 50.67 401.00 51.00 C 408.99 51.33 418.16 50.32 426.00 51.00 C 433.84 51.68 442.58 49.45 450.00 51.00 C 457.42 52.55 468.42 47.71 475.00 51.00 Z"/>
</g>
<g fill="None" fill-opacity="0.0" stroke="#000000" stroke-opacity="0.98" stroke-width="0.3"><path d="
M 60.00 32.00 
C 30.34 25.86 19.41 69.43 48.33 77.67 C 77.25 85.91 88.21 37.84 60.00 32.00
M 56.00 39.00 
C 75.07 40.82 71.76 73.57 51.78 70.22 C 31.80 66.87 35.80 37.07 56.00 39.00 Z"/>
</g>
<g fill="None" fill-opacity="0.0" stroke="#000000" stroke-opacity="0.98" stroke-width="0.3"><path d="
M 127.00 32.00 
C 97.80 25.95 86.55 69.38 115.33 77.67 C 144.11 85.96 155.79 37.96 127.00 32.00
M 123.00 39.00 
C 142.23 40.83 140.06 72.67 119.99 70.99 C 99.93 69.31 102.84 37.08 123.00 39.00 Z"/>
</g>
<g fill="None" fill-opacity="0.0" stroke="#000000" stroke-opacity="0.98" stroke-width="0.3"><path d="
M 194.00 32.00 
C 164.42 26.70 154.06 69.99 183.33 77.67 C 212.60 85.35 223.13 37.22 194.00 32.00
M 191.00 39.00 
C 210.07 41.69 206.79 72.95 186.78 70.22 C 166.77 67.49 170.70 36.14 191.00 39.00 Z"/>
</g>
<g fill="None" fill-opacity="0.0" stroke="#000000" stroke-opacity="0.05" stroke-width="0.3"><path d="
M 56.00 39.00 
C 35.80 37.07 31.80 66.87 51.78 70.22 C 71.76 73.57 75.07 40.82 56.00 39.00 Z"/>
</g>
<g fill="None" fill-opacity="0.0" stroke="#000000" stroke-opacity="0.05" stroke-width="0.3"><path d="
M 123.00 39.00 
C 102.84 37.08 99.93 69.31 119.99 70.99 C 140.06 72.67 142.23 40.83 123.00 39.00 Z"/>
</g>
<g fill="None" fill-opacity="0.0" stroke="#000000" stroke-opacity="0.05" stroke-width="0.3"><path d="
M 191.00 39.00 
C 170.70 36.14 166.77 67.49 186.78 70.22 C 206.79 72.95 210.07 41.69 191.00 39.00 Z"/>
</g>
<g fill="None" fill-opacity="0.0" stroke="#000000" stroke-opacity="0.98" stroke-width="0.3"><path d="
M 475.00 51.00 
C 468.42 47.71 457.42 52.55 450.00 51.00 C 442.58 49.45 433.84 51.68 426.00 51.00 C 418.16 50.32 408.99 51.33 401.00 51.00 C 393.01 50.67 385.02 51.18 377.00 51.00 C 368.98 50.82 361.07 51.16 353.00 51.00 C 344.93 50.84 336.05 51.23 328.00 51.00 C 319.95 50.77 311.93 51.47 304.00 51.00 C 296.07 50.53 286.66 51.98 279.00 51.00 C 271.34 50.02 262.00 53.25 255.00 51.00 C 248.00 48.75 235.77 54.58 243.33 58.67 C 250.89 62.76 260.08 57.31 268.00 59.00 C 275.92 60.69 283.95 58.26 292.00 59.00 C 300.05 59.74 308.92 58.63 317.00 59.00 C 325.08 59.37 332.95 58.80 341.00 59.00 C 349.05 59.20 356.94 58.83 365.00 59.00 C 373.06 59.17 382.00 58.76 390.00 59.00 C 398.00 59.24 406.20 58.50 414.00 59.00 C 421.80 59.50 431.62 57.95 439.00 59.00 C 446.38 60.05 456.66 56.59 463.00 59.00 C 469.34 61.41 483.48 55.24 475.00 51.00 Z"/>
</g>
<g fill="None" fill-opacity="0.0" stroke="#000000" stroke-opacity="0.01" stroke-width="0.3"><path d="
M 501.00 495.00 
C 507.91 485.38 504.44 470.76 505.00 457.00 C 505.56 443.24 504.75 428.18 505.00 414.00 C 505.25 399.82 504.88 384.37 505.00 370.00 C 505.12 355.63 504.93 341.47 505.00 327.00 C 505.07 312.53 504.93 297.54 505.00 283.00 C 505.07 268.46 504.88 254.64 505.00 240.00 C 505.12 225.36 504.75 210.83 505.00 196.00 C 505.25 181.17 504.45 168.25 505.00 153.00 C 505.55 137.75 503.80 125.13 505.00 109.00 C 506.20 92.87 486.70 98.36 473.00 98.00 C 459.30 97.64 443.13 98.16 429.00 98.00 C 414.87 97.84 400.33 98.07 386.00 98.00 C 371.67 97.93 356.40 98.03 342.00 98.00 C 327.60 97.97 313.40 98.01 299.00 98.00 C 284.60 97.99 270.45 98.01 256.00 98.00 C 241.55 97.99 226.47 98.00 212.00 98.00 C 197.53 98.00 183.45 98.00 169.00 98.00 C 154.55 98.00 139.41 98.00 125.00 98.00 C 110.59 98.00 96.29 98.00 82.00 98.00 C 67.71 98.00 52.04 97.99 38.00 98.00 C 23.96 98.01 5.31 93.47 7.00 110.00 C 8.69 126.53 6.22 138.56 7.00 154.00 C 7.78 169.44 6.65 182.09 7.00 197.00 C 7.35 211.91 6.83 226.32 7.00 241.00 C 7.17 255.68 6.91 269.45 7.00 284.00 C 7.09 298.55 6.93 313.54 7.00 328.00 C 7.07 342.46 6.89 356.66 7.00 371.00 C 7.11 385.34 6.79 400.88 7.00 415.00 C 7.21 429.12 6.53 444.39 7.00 458.00 C 7.47 471.61 4.30 485.12 11.00 495.00
C 173.33 495.00 338.65 495.00 501.00 495.00
M 463.00 132.00 
C 462.05 134.72 462.47 135.58 461.00 138.00
C 423.59 136.34 384.38 136.33 347.00 138.00
C 340.79 125.16 361.28 129.12 374.00 129.00 C 386.72 128.88 406.42 128.59 420.00 129.00 C 433.58 129.41 451.45 126.46 463.00 132.00
M 180.00 153.00 
C 184.37 154.49 187.50 154.96 191.00 158.00
C 196.21 151.85 205.95 139.57 212.75 146.39 C 219.56 153.22 227.67 161.19 232.80 168.25 C 237.93 175.31 222.65 182.45 221.00 190.00
C 223.47 194.82 227.25 200.43 237.00 198.00 C 246.75 195.57 249.29 208.30 248.00 215.00 C 246.71 221.70 251.16 234.92 243.75 238.75 C 236.35 242.58 224.52 236.63 222.23 246.23 C 219.94 255.83 228.30 254.64 231.77 262.23 C 235.24 269.82 229.21 275.10 223.75 279.75 C 218.30 284.41 215.35 291.04 207.99 291.99 C 200.64 292.95 195.47 284.77 191.00 280.00
C 174.92 280.52 184.50 294.45 179.07 303.07 C 173.65 311.70 158.87 307.29 149.00 308.00 C 139.13 308.71 135.36 292.26 138.00 284.00
C 134.44 283.40 131.23 281.63 128.00 280.00
C 118.60 295.63 108.25 292.68 97.25 281.75 C 86.25 270.82 81.66 260.45 98.00 251.00
C 97.16 247.19 94.84 243.84 94.00 240.00
C 88.24 239.09 72.39 243.24 71.23 233.77 C 70.07 224.30 70.29 214.67 71.00 205.00 C 71.71 195.33 87.96 198.35 94.00 198.00
C 95.64 193.05 95.78 190.72 98.00 187.00
C 90.14 181.36 82.24 172.96 87.13 166.08 C 92.02 159.21 101.58 152.25 107.00 145.00
C 116.25 143.73 121.51 150.13 128.00 158.00
C 131.14 155.58 134.00 153.96 138.00 154.00
C 133.77 133.57 143.29 129.58 161.00 130.00 C 178.71 130.42 183.02 133.85 180.00 153.00
M 311.00 173.00 
C 308.35 170.16 309.80 167.89 311.00 165.00
C 321.96 164.89 332.07 165.28 344.00 165.00 C 355.93 164.72 366.39 165.61 379.00 165.00 C 391.61 164.39 400.09 166.34 414.00 165.00 C 427.91 163.66 429.23 173.85 415.00 173.00 C 400.77 172.15 392.79 173.37 380.00 173.00 C 367.21 172.63 357.10 173.15 345.00 173.00 C 332.90 172.85 322.17 173.02 311.00 173.00
M 375.00 202.00 
C 376.33 205.27 371.38 204.87 372.00 208.00
C 352.59 206.34 331.39 206.34 312.00 208.00
C 312.52 204.92 307.77 205.36 309.00 202.00
C 318.26 196.99 331.08 199.00 342.00 199.00 C 352.92 199.00 365.74 196.99 375.00 202.00
M 463.00 202.00 
C 462.05 204.72 462.48 205.58 461.00 208.00
C 447.24 206.40 431.73 206.30 418.00 208.00
C 416.60 205.68 416.04 203.00 417.00 200.00
C 429.75 199.54 450.46 195.99 463.00 202.00
M 357.00 234.00 
C 354.70 236.87 364.58 242.92 352.97 242.97 C 341.37 243.03 326.60 243.02 315.00 243.00 C 303.40 242.98 313.29 236.90 311.00 234.00
C 325.78 235.65 342.22 235.65 357.00 234.00
M 429.00 270.00 
C 426.63 283.83 428.73 301.94 428.00 314.00
C 390.59 314.69 350.66 312.65 313.00 315.00
C 307.09 301.32 310.42 282.99 311.00 268.00
C 321.62 268.13 336.03 267.73 349.00 268.00 C 361.97 268.27 378.00 267.45 391.00 268.00 C 404.00 268.55 418.73 265.85 429.00 270.00
M 268.00 339.00 
C 267.03 348.32 269.18 362.28 268.00 372.00 C 266.82 381.72 273.10 399.97 261.00 400.00 C 248.89 400.03 237.86 399.98 226.00 400.00 C 214.14 400.02 202.74 399.99 191.00 400.00 C 179.26 400.01 167.67 399.99 156.00 400.00 C 144.33 400.01 132.60 399.97 121.00 400.00 C 109.40 400.03 97.49 399.94 86.00 400.00 C 74.51 400.06 62.71 399.87 52.00 400.00
C 49.07 381.28 52.94 359.28 50.00 340.00
C 85.06 336.11 122.87 338.32 159.00 338.00 C 195.13 337.68 232.89 337.41 268.00 339.00
M 163.00 444.00 
C 162.28 446.18 164.88 448.13 162.00 451.00
C 138.31 450.99 111.67 450.99 88.00 451.00
C 85.03 448.05 87.75 446.45 87.00 444.00
C 110.94 442.34 139.08 442.34 163.00 444.00
M 312.00 443.00 
C 313.87 445.81 313.89 448.09 312.00 451.00
C 286.64 450.99 258.33 450.99 233.00 451.00
C 230.03 448.05 232.75 446.46 232.00 444.00
C 257.33 441.67 286.39 443.68 312.00 443.00
M 461.00 443.00 
C 462.87 445.81 462.89 448.09 461.00 451.00
C 435.70 450.32 406.98 452.33 382.00 450.00
C 381.39 447.01 382.12 446.45 384.00 443.00
C 409.08 444.67 435.95 444.67 461.00 443.00 Z"/>
</g>
<g fill="None" fill-opacity="0.0" stroke="#000000" stroke-opacity="0.89" stroke-width="0.3"><path d="
M 463.00 132.00 
C 451.45 126.46 433.58 129.41 420.00 129.00 C 406.42 128.59 386.72 128.88 374.00 129.00 C 361.28 129.12 340.79 125.16 347.00 138.00
C 384.38 136.33 423.59 136.34 461.00 138.00
C 462.47 135.58 462.05 134.72 463.00 132.00 Z"/>
</g>
<g fill="None" fill-opacity="0.0" stroke="#000000" stroke-opacity="0.98" stroke-width="0.3"><path d="
M 180.00 153.00 
C 183.02 133.85 178.71 130.42 161.00 130.00 C 143.29 129.58 133.77 133.57 138.00 154.00
C 134.00 153.96 131.14 155.58 128.00 158.00
C 121.51 150.13 116.25 143.73 107.00 145.00
C 101.58 152.25 92.02 159.21 87.13 166.08 C 82.24 172.96 90.14 181.36 98.00 187.00
C 95.78 190.72 95.64 193.05 94.00 198.00
C 87.96 198.35 71.71 195.33 71.00 205.00 C 70.29 214.67 70.07 224.30 71.23 233.77 C 72.39 243.24 88.24 239.09 94.00 240.00
C 94.84 243.84 97.16 247.19 98.00 251.00
C 81.66 260.45 86.25 270.82 97.25 281.75 C 108.25 292.68 118.60 295.63 128.00 280.00
C 131.23 281.63 134.44 283.40 138.00 284.00
C 135.36 292.26 139.13 308.71 149.00 308.00 C 158.87 307.29 173.65 311.70 179.07 303.07 C 184.50 294.45 174.92 280.52 191.00 280.00
C 195.47 284.77 200.64 292.95 207.99 291.99 C 215.35 291.04 218.30 284.41 223.75 279.75 C 229.21 275.10 235.24 269.82 231.77 262.23 C 228.30 254.64 219.94 255.83 222.23 246.23 C 224.52 236.63 236.35 242.58 243.75 238.75 C 251.16 234.92 246.71 221.70 248.00 215.00 C 249.29 208.30 246.75 195.57 237.00 198.00 C 227.25 200.43 223.47 194.82 221.00 190.00
C 222.65 182.45 237.93 175.31 232.80 168.25 C 227.67 161.19 219.56 153.22 212.75 146.39 C 205.95 139.57 196.21 151.85 191.00 158.00
C 187.50 154.96 184.37 154.49 180.00 153.00
M 226.00 266.00 
C 220.34 271.91 216.93 279.69 209.25 284.25 C 201.57 288.80 197.50 268.68 188.93 272.93 C 180.35 277.18 169.28 278.17 173.00 292.00 C 176.72 305.83 153.39 298.05 146.00 300.00
C 146.96 290.09 147.56 279.01 137.78 276.22 C 127.99 273.44 124.43 269.77 117.75 279.75 C 111.07 289.74 107.25 280.45 100.75 275.25 C 94.26 270.05 90.61 263.77 100.25 258.25 C 109.89 252.73 103.02 245.02 101.01 236.99 C 99.00 228.97 78.01 237.27 78.01 227.99 C 78.00 218.71 74.05 201.84 87.00 205.00 C 99.95 208.16 100.83 199.60 104.77 190.77 C 108.72 181.94 97.75 177.73 93.00 172.00
C 96.28 165.19 101.11 163.54 106.25 157.25 C 111.39 150.96 115.95 155.15 121.25 161.75 C 126.54 168.35 132.25 163.36 140.02 161.02 C 147.80 158.69 146.38 145.46 146.00 138.00
C 152.16 140.31 166.42 134.77 171.67 138.33 C 176.92 141.89 169.27 158.58 177.03 159.97 C 184.78 161.36 189.28 167.25 194.75 163.75 C 200.22 160.26 203.87 149.94 209.74 154.26 C 215.62 158.58 217.69 161.72 222.75 167.25 C 227.82 172.78 220.51 176.53 215.25 182.25 C 209.98 187.96 216.52 190.38 217.78 199.22 C 219.03 208.06 232.80 201.93 238.67 205.33 C 244.54 208.73 240.14 221.82 241.00 229.00 C 241.86 236.18 221.28 229.93 219.26 234.26 C 217.23 238.59 211.99 247.51 212.79 252.23 C 213.58 256.95 223.20 262.32 226.00 266.00 Z"/>
</g>
<g fill="None" fill-opacity="0.0" stroke="#D95050" stroke-opacity="0.99" stroke-width="0.3"><path d="
M 226.00 266.00 
C 223.20 262.32 213.58 256.95 212.79 252.23 C 211.99 247.51 217.23 238.59 219.26 234.26 C 221.28 229.93 241.86 236.18 241.00 229.00 C 240.14 221.82 244.54 208.73 238.67 205.33 C 232.80 201.93 219.03 208.06 217.78 199.22 C 216.52 190.38 209.98 187.96 215.25 182.25 C 220.51 176.53 227.82 172.78 222.75 167.25 C 217.69 161.72 215.62 158.58 209.74 154.26 C 203.87 149.94 200.22 160.26 194.75 163.75 C 189.28 167.25 184.78 161.36 177.03 159.97 C 169.27 158.58 176.92 141.89 171.67 138.33 C 166.42 134.77 152.16 140.31 146.00 138.00
C 146.38 145.46 147.80 158.69 140.02 161.02 C 132.25 163.36 126.54 168.35 121.25 161.75 C 115.95 155.15 111.39 150.96 106.25 157.25 C 101.11 163.54 96.28 165.19 93.00 172.00
C 97.75 177.73 108.72 181.94 104.77 190.77 C 100.83 199.60 99.95 208.16 87.00 205.00 C 74.05 201.84 78.00 218.71 78.01 227.99 C 78.01 237.27 99.00 228.97 101.01 236.99 C 103.02 245.02 109.89 252.73 100.25 258.25 C 90.61 263.77 94.26 270.05 100.75 275.25 C 107.25 280.45 111.07 289.74 117.75 279.75 C 124.43 269.77 127.99 273.44 137.78 276.22 C 147.56 279.01 146.96 290.09 146.00 300.00
C 153.39 298.05 176.72 305.83 173.00 292.00 C 169.28 278.17 180.35 277.18 188.93 272.93 C 197.50 268.68 201.57 288.80 209.25 284.25 C 216.93 279.69 220.34 271.91 226.00 266.00
M 164.00 172.00 
C 198.27 176.14 218.02 217.16 197.75 245.75 C 177.47 274.33 134.83 271.57 118.08 240.92 C 101.32 210.28 127.31 167.56 164.00 172.00 Z"/>
</g>
<g fill="None" fill-opacity="0.0" stroke="#000000" stroke-opacity="0.97" stroke-width="0.3"><path d="
M 311.00 173.00 
C 322.17 173.02 332.90 172.85 345.00 173.00 C 357.10 173.15 367.21 172.63 380.00 173.00 C 392.79 173.37 400.77 172.15 415.00 173.00 C 429.23 173.85 427.91 163.66 414.00 165.00 C 400.09 166.34 391.61 164.39 379.00 165.00 C 366.39 165.61 355.93 164.72 344.00 165.00 C 332.07 165.28 321.96 164.89 311.00 165.00
C 309.80 167.89 308.35 170.16 311.00 173.00 Z"/>
</g>
<g fill="None" fill-opacity="0.0" stroke="#000000" stroke-opacity="0.98" stroke-width="0.3"><path d="
M 164.00 172.00 
C 127.31 167.56 101.32 210.28 118.08 240.92 C 134.83 271.57 177.47 274.33 197.75 245.75 C 218.02 217.16 198.27 176.14 164.00 172.00
M 167.00 180.00 
C 194.91 184.53 208.30 221.57 190.23 243.23 C 172.16 264.89 134.92 262.68 123.23 234.77 C 111.54 206.86 135.63 174.90 167.00 180.00 Z"/>
</g>
<g fill="None" fill-opacity="0.0" stroke="#000000" stroke-opacity="0.02" stroke-width="0.3"><path d="
M 167.00 180.00 
C 135.63 174.90 111.54 206.86 123.23 234.77 C 134.92 262.68 172.16 264.89 190.23 243.23 C 208.30 221.57 194.91 184.53 167.00 180.00 Z"/>
</g>
<g fill="None" fill-opacity="0.0" stroke="#000000" stroke-opacity="0.89" stroke-width="0.3"><path d="
M 375.00 202.00 
C 365.74 196.99 352.92 199.00 342.00 199.00 C 331.08 199.00 318.26 196.99 309.00 202.00
C 307.77 205.36 312.52 204.92 312.00 208.00
C 331.39 206.34 352.59 206.34 372.00 208.00
C 371.38 204.87 376.33 205.27 375.00 202.00 Z"/>
</g>
<g fill="None" fill-opacity="0.0" stroke="#000000" stroke-opacity="0.89" stroke-width="0.3"><path d="
M 463.00 202.00 
C 450.46 195.99 429.75 199.54 417.00 200.00
C 416.04 203.00 416.60 205.68 418.00 208.00
C 431.73 206.30 447.24 206.40 461.00 208.00
C 462.48 205.58 462.05 204.72 463.00 202.00 Z"/>
</g>
<g fill="None" fill-opacity="0.0" stroke="#000000" stroke-opacity="0.88" stroke-width="0.3"><path d="
M 357.00 234.00 
C 342.22 235.65 325.78 235.65 311.00 234.00
C 313.29 236.90 303.40 242.98 315.00 243.00 C 326.60 243.02 341.37 243.03 352.97 242.97 C 364.58 242.92 354.70 236.87 357.00 234.00 Z"/>
</g>
<g fill="None" fill-opacity="0.0" stroke="#000000" stroke-opacity="0.98" stroke-width="0.3"><path d="
M 429.00 270.00 
C 418.73 265.85 404.00 268.55 391.00 268.00 C 378.00 267.45 361.97 268.27 349.00 268.00 C 336.03 267.73 321.62 268.13 311.00 268.00
C 310.42 282.99 307.09 301.32 313.00 315.00
C 350.66 312.65 390.59 314.69 428.00 314.00
C 428.73 301.94 426.63 283.83 429.00 270.00
M 382.00 275.00 
C 382.00 285.67 382.00 296.33 382.00 307.00
C 361.00 307.00 340.00 307.00 319.00 307.00
C 319.00 296.33 319.00 285.67 319.00 275.00
C 340.00 275.00 361.00 275.00 382.00 275.00
M 420.00 307.00 
C 410.54 307.85 399.46 307.86 390.00 307.00
C 387.52 304.61 388.91 294.49 389.00 291.00 C 389.09 287.51 387.28 276.91 390.00 275.00
C 392.36 273.35 401.98 275.00 405.00 275.00 C 408.02 275.00 417.64 273.35 420.00 275.00
C 422.75 276.93 420.88 287.51 421.00 291.00 C 421.12 294.49 422.45 304.65 420.00 307.00 Z"/>
</g>
<g fill="None" fill-opacity="0.0" stroke="#52BD9D" stroke-opacity="0.99" stroke-width="0.3"><path d="
M 382.00 275.00 
C 361.00 275.00 340.00 275.00 319.00 275.00
C 319.00 285.67 319.00 296.33 319.00 307.00
C 340.00 307.00 361.00 307.00 382.00 307.00
C 382.00 296.33 382.00 285.67 382.00 275.00 Z"/>
</g>
<g fill="None" fill-opacity="0.0" stroke="#5A2020" stroke-opacity="0.78" stroke-width="0.3"><path d="
M 390.00 307.00 
C 389.96 307.00 390.00 306.00 390.00 306.00
C 390.00 295.67 390.00 285.33 390.00 275.00
C 387.28 276.91 389.09 287.51 389.00 291.00 C 388.91 294.49 387.52 304.61 390.00 307.00 Z"/>
</g>
<g fill="None" fill-opacity="0.0" stroke="#DB5050" stroke-opacity="1.00" stroke-width="0.3"><path d="
M 390.00 306.00 
C 399.46 305.14 410.54 305.14 420.00 306.00
C 419.99 295.67 420.01 285.33 420.00 275.00
C 417.64 273.35 408.02 275.00 405.00 275.00 C 401.98 275.00 392.36 273.35 390.00 275.00
C 390.00 285.33 390.00 295.67 390.00 306.00 Z"/>
</g>
<g fill="None" fill-opacity="0.0" stroke="#722929" stroke-opacity="0.76" stroke-width="0.3"><path d="
M 420.00 306.00 
C 420.00 306.50 420.00 307.00 420.00 307.00
C 422.45 304.65 421.12 294.49 421.00 291.00 C 420.88 287.51 422.75 276.93 420.00 275.00
C 420.01 285.33 419.99 295.67 420.00 306.00 Z"/>
</g>
<g fill="None" fill-opacity="0.0" stroke="#D24D4D" stroke-opacity="0.84" stroke-width="0.3"><path d="
M 390.00 307.00 
C 399.46 307.86 410.54 307.85 420.00 307.00
C 420.00 307.00 420.00 306.50 420.00 306.00
C 410.54 305.14 399.46 305.14 390.00 306.00
C 390.00 306.00 389.96 307.00 390.00 307.00 Z"/>
</g>
<g fill="None" fill-opacity="0.0" stroke="#000000" stroke-opacity="0.99" stroke-width="0.3"><path d="
M 268.00 339.00 
C 232.89 337.41 195.13 337.68 159.00 338.00 C 122.87 338.32 85.06 336.11 50.00 340.00
C 52.94 359.28 49.07 381.28 52.00 400.00
C 62.71 399.87 74.51 400.06 86.00 400.00 C 97.49 399.94 109.40 400.03 121.00 400.00 C 132.60 399.97 144.33 400.01 156.00 400.00 C 167.67 399.99 179.26 400.01 191.00 400.00 C 202.74 399.99 214.14 400.02 226.00 400.00 C 237.86 399.98 248.89 400.03 261.00 400.00 C 273.10 399.97 266.82 381.72 268.00 372.00 C 269.18 362.28 267.03 348.32 268.00 339.00
M 104.00 346.00 
C 106.38 349.40 102.91 356.68 104.00 361.00 C 105.09 365.32 103.46 371.22 104.00 376.00 C 104.54 380.78 103.60 387.08 104.00 392.00
C 89.00 392.00 74.00 392.00 59.00 392.00
C 55.77 389.74 57.83 374.53 58.00 370.00 C 58.17 365.47 55.88 350.19 58.33 346.33 C 60.78 342.47 76.76 345.07 81.00 345.00 C 85.24 344.93 101.77 342.81 104.00 346.00
M 155.00 392.00 
C 152.27 393.91 144.54 391.54 141.00 392.00 C 137.46 392.46 130.60 392.68 127.00 392.00 C 123.40 391.32 114.89 394.02 112.00 392.00
C 108.98 389.88 111.47 380.88 111.00 377.00 C 110.53 373.12 110.70 365.07 111.00 361.00 C 111.30 356.93 109.26 348.74 112.00 346.00
C 115.00 343.00 129.65 344.84 134.00 345.00 C 138.35 345.16 153.37 342.42 155.74 346.26 C 158.12 350.09 156.04 364.50 156.00 369.00 C 155.96 373.50 158.33 389.67 155.00 392.00
M 207.00 346.00 
C 209.38 349.40 205.91 356.68 207.00 361.00 C 208.09 365.32 206.46 371.22 207.00 376.00 C 207.54 380.78 206.60 387.08 207.00 392.00
C 192.33 392.00 177.67 392.00 163.00 392.00
C 163.67 376.83 161.67 360.34 164.00 346.00
C 166.91 343.09 180.71 344.77 185.00 345.00 C 189.29 345.23 204.68 342.68 207.00 346.00
M 260.00 346.00 
C 262.38 349.40 258.91 356.68 260.00 361.00 C 261.09 365.32 259.46 371.22 260.00 376.00 C 260.54 380.78 259.60 387.08 260.00 392.00
C 245.00 392.00 230.00 392.00 215.00 392.00
C 215.00 376.67 215.00 361.33 215.00 346.00
C 217.16 342.91 232.91 344.86 237.00 345.00 C 241.09 345.14 257.74 342.76 260.00 346.00 Z"/>
</g>
<g fill="None" fill-opacity="0.0" stroke="#285F4E" stroke-opacity="0.76" stroke-width="0.3"><path d="
M 59.00 392.00 
C 59.00 376.67 59.00 361.33 59.00 346.00
C 74.00 346.00 89.00 346.00 104.00 346.00
C 101.77 342.81 85.24 344.93 81.00 345.00 C 76.76 345.07 60.78 342.47 58.33 346.33 C 55.88 350.19 58.17 365.47 58.00 370.00 C 57.83 374.53 55.77 389.74 59.00 392.00 Z"/>
</g>
<g fill="None" fill-opacity="0.0" stroke="#2E6A59" stroke-opacity="0.76" stroke-width="0.3"><path d="
M 112.00 346.00 
C 126.33 346.00 140.67 346.00 155.00 346.00
C 155.00 361.33 155.00 376.67 155.00 392.00
C 158.33 389.67 155.96 373.50 156.00 369.00 C 156.04 364.50 158.12 350.09 155.74 346.26 C 153.37 342.42 138.35 345.16 134.00 345.00 C 129.65 344.84 115.00 343.00 112.00 346.00 Z"/>
</g>
<g fill="None" fill-opacity="0.0" stroke="#2A6453" stroke-opacity="0.76" stroke-width="0.3"><path d="
M 164.00 346.00 
C 168.79 342.65 178.99 347.67 185.00 346.00 C 191.01 344.33 200.66 347.26 207.00 346.00
C 204.68 342.68 189.29 345.23 185.00 345.00 C 180.71 344.77 166.91 343.09 164.00 346.00 Z"/>
</g>
<g fill="None" fill-opacity="0.0" stroke="#2B6554" stroke-opacity="0.76" stroke-width="0.3"><path d="
M 215.00 346.00 
C 230.00 346.00 245.00 346.00 260.00 346.00
C 257.74 342.76 241.09 345.14 237.00 345.00 C 232.91 344.86 217.16 342.91 215.00 346.00 Z"/>
</g>
<g fill="None" fill-opacity="0.0" stroke="#53BE9D" stroke-opacity="1.00" stroke-width="0.3"><path d="
M 59.00 392.00 
C 74.00 392.00 89.00 392.00 104.00 392.00
C 103.60 387.08 104.54 380.78 104.00 376.00 C 103.46 371.22 105.09 365.32 104.00 361.00 C 102.91 356.68 106.38 349.40 104.00 346.00
C 89.00 346.00 74.00 346.00 59.00 346.00
C 59.00 361.33 59.00 376.67 59.00 392.00 Z"/>
</g>
<g fill="None" fill-opacity="0.0" stroke="#0E241D" stroke-opacity="0.87" stroke-width="0.3"><path d="
M 112.00 392.00 
C 112.00 376.67 112.00 361.33 112.00 346.00
C 109.26 348.74 111.30 356.93 111.00 361.00 C 110.70 365.07 110.53 373.12 111.00 377.00 C 111.47 380.88 108.98 389.88 112.00 392.00 Z"/>
</g>
<g fill="None" fill-opacity="0.0" stroke="#53BE9D" stroke-opacity="1.00" stroke-width="0.3"><path d="
M 112.00 392.00 
C 114.89 394.02 123.40 391.32 127.00 392.00 C 130.60 392.68 137.46 392.46 141.00 392.00 C 144.54 391.54 152.27 393.91 155.00 392.00
C 155.00 376.67 155.00 361.33 155.00 346.00
C 140.67 346.00 126.33 346.00 112.00 346.00
C 112.00 361.33 112.00 376.67 112.00 392.00 Z"/>
</g>
<g fill="None" fill-opacity="0.0" stroke="#52BD9D" stroke-opacity="0.99" stroke-width="0.3"><path d="
M 207.00 346.00 
C 200.66 347.26 191.01 344.33 185.00 346.00 C 178.99 347.67 168.79 342.65 164.00 346.00
C 161.67 360.34 163.67 376.83 163.00 392.00
C 177.67 392.00 192.33 392.00 207.00 392.00
C 206.60 387.08 207.54 380.78 207.00 376.00 C 206.46 371.22 208.09 365.32 207.00 361.00 C 205.91 356.68 209.38 349.40 207.00 346.00 Z"/>
</g>
<g fill="None" fill-opacity="0.0" stroke="#53BE9D" stroke-opacity="1.00" stroke-width="0.3"><path d="
M 260.00 346.00 
C 245.00 346.00 230.00 346.00 215.00 346.00
C 215.00 361.33 215.00 376.67 215.00 392.00
C 230.00 392.00 245.00 392.00 260.00 392.00
C 259.60 387.08 260.54 380.78 260.00 376.00 C 259.46 371.22 261.09 365.32 260.00 361.00 C 258.91 356.68 262.38 349.40 260.00 346.00 Z"/>
</g>
<g fill="None" fill-opacity="0.0" stroke="#000000" stroke-opacity="0.96" stroke-width="0.3"><path d="
M 163.00 444.00 
C 139.08 442.34 110.94 442.34 87.00 444.00
C 87.75 446.45 85.03 448.05 88.00 451.00
C 111.67 450.99 138.31 450.99 162.00 451.00
C 164.88 448.13 162.28 446.18 163.00 444.00 Z"/>
</g>
<g fill="None" fill-opacity="0.0" stroke="#000000" stroke-opacity="0.96" stroke-width="0.3"><path d="
M 312.00 443.00 
C 286.39 443.68 257.33 441.67 232.00 444.00
C 232.75 446.46 230.03 448.05 233.00 451.00
C 258.33 450.99 286.64 450.99 312.00 451.00
C 313.89 448.09 313.87 445.81 312.00 443.00 Z"/>
</g>
<g fill="None" fill-opacity="0.0" stroke="#000000" stroke-opacity="0.99" stroke-width="0.3"><path d="
M 461.00 443.00 
C 435.95 444.67 409.08 444.67 384.00 443.00
C 382.12 446.45 381.39 447.01 382.00 450.00
C 406.98 452.33 435.70 450.32 461.00 451.00
C 462.89 448.09 462.87 445.81 461.00 443.00 Z"/>
</g>
<g fill="None" fill-opacity="0.0" stroke="#000000" stroke-opacity="0.08" stroke-width="0.3"><path d="
M 0.00 512.00 
L 512.00 512.00
L 512.00 490.00
C 510.67 491.26 510.01 494.41 511.00 496.00
C 496.32 507.65 475.34 500.75 454.00 502.00 C 432.66 503.25 408.13 501.46 386.00 502.00 C 363.87 502.54 339.42 501.78 317.00 502.00 C 294.58 502.22 271.44 501.96 249.00 502.00 C 226.56 502.04 203.31 502.11 181.00 502.00 C 158.69 501.89 133.83 502.33 112.00 502.00 C 90.17 501.67 64.66 502.78 44.00 502.00 C 23.34 501.22 4.40 508.50 0.00 490.00
L 0.00 512.00 Z"/>
</g>
<g fill="#000000" fill-opacity="0.08" stroke="None">
<path d="
M 0.00 22.00 
C 5.05 2.80 26.11 11.01 47.00 10.00 C 67.89 8.99 93.98 10.44 116.00 10.00 C 138.02 9.56 162.51 10.16 185.00 10.00 C 207.49 9.84 231.38 9.98 254.00 10.00 C 276.62 10.02 300.51 9.78 323.00 10.00 C 345.49 10.22 369.97 9.44 392.00 10.00 C 414.03 10.56 440.07 8.73 461.00 10.00 C 481.93 11.27 506.19 2.18 512.00 22.00
L 512.00 0.00
L 0.00 0.00
L 0.00 22.00 Z"/>
</g>
<g fill="#000000" fill-opacity="1.00" stroke="None">
<path d="
M 0.00 22.00 
L 0.00 490.00
C 4.40 508.50 23.34 501.22 44.00 502.00 C 64.66 502.78 90.17 501.67 112.00 502.00 C 133.83 502.33 158.69 501.89 181.00 502.00 C 203.31 502.11 226.56 502.04 249.00 502.00 C 271.44 501.96 294.58 502.22 317.00 502.00 C 339.42 501.78 363.87 502.54 386.00 502.00 C 408.13 501.46 432.66 503.25 454.00 502.00 C 475.34 500.75 496.32 507.65 511.00 496.00
C 510.01 494.41 510.67 491.26 512.00 490.00
L 512.00 22.00
C 506.19 2.18 481.93 11.27 461.00 10.00 C 440.07 8.73 414.03 10.56 392.00 10.00 C 369.97 9.44 345.49 10.22 323.00 10.00 C 300.51 9.78 276.62 10.02 254.00 10.00 C 231.38 9.98 207.49 9.84 185.00 10.00 C 162.51 10.16 138.02 9.56 116.00 10.00 C 93.98 10.44 67.89 8.99 47.00 10.00 C 26.11 11.01 5.05 2.80 0.00 22.00
M 504.00 91.00 
C 338.67 91.00 173.33 91.00 8.00 91.00
C 8.26 77.99 7.65 61.68 8.00 49.00 C 8.35 36.32 3.14 16.26 19.00 17.00 C 34.86 17.74 46.98 16.67 62.00 17.00 C 77.02 17.33 90.35 16.85 105.00 17.00 C 119.65 17.15 133.52 16.93 148.00 17.00 C 162.48 17.07 176.60 16.97 191.00 17.00 C 205.40 17.03 219.62 17.00 234.00 17.00 C 248.38 17.00 262.62 17.02 277.00 17.00 C 291.38 16.98 305.58 17.05 320.00 17.00 C 334.42 16.95 348.49 17.11 363.00 17.00 C 377.51 16.89 391.28 17.24 406.00 17.00 C 420.72 16.76 433.82 17.54 449.00 17.00 C 464.18 16.46 475.78 18.20 492.00 17.00 C 508.22 15.80 504.08 34.75 504.00 48.00 C 503.92 61.25 504.06 77.48 504.00 91.00
M 501.00 495.00 
C 338.65 495.00 173.33 495.00 11.00 495.00
C 4.30 485.12 7.47 471.61 7.00 458.00 C 6.53 444.39 7.21 429.12 7.00 415.00 C 6.79 400.88 7.11 385.34 7.00 371.00 C 6.89 356.66 7.07 342.46 7.00 328.00 C 6.93 313.54 7.09 298.55 7.00 284.00 C 6.91 269.45 7.17 255.68 7.00 241.00 C 6.83 226.32 7.35 211.91 7.00 197.00 C 6.65 182.09 7.78 169.44 7.00 154.00 C 6.22 138.56 8.69 126.53 7.00 110.00 C 5.31 93.47 23.96 98.01 38.00 98.00 C 52.04 97.99 67.71 98.00 82.00 98.00 C 96.29 98.00 110.59 98.00 125.00 98.00 C 139.41 98.00 154.55 98.00 169.00 98.00 C 183.45 98.00 197.53 98.00 212.00 98.00 C 226.47 98.00 241.55 97.99 256.00 98.00 C 270.45 98.01 284.60 97.99 299.00 98.00 C 313.40 98.01 327.60 97.97 342.00 98.00 C 356.40 98.03 371.67 97.93 386.00 98.00 C 400.33 98.07 414.87 97.84 429.00 98.00 C 443.13 98.16 459.30 97.64 473.00 98.00 C 486.70 98.36 506.20 92.87 505.00 109.00 C 503.80 125.13 505.55 137.75 505.00 153.00 C 504.45 168.25 505.25 181.17 505.00 196.00 C 504.75 210.83 505.12 225.36 505.00 240.00 C 504.88 254.64 505.07 268.46 505.00 283.00 C 504.93 297.54 505.07 312.53 505.00 327.00 C 504.93 341.47 505.12 355.63 505.00 370.00 C 504.88 384.37 505.25 399.82 505.00 414.00 C 504.75 428.18 505.56 443.24 505.00 457.00 C 504.44 470.76 507.91 485.38 501.00 495.00 Z"/>
</g>
<g fill="#FEDA7B" fill-opacity="1.00" stroke="None">
<path d="
M 504.00 91.00 
C 504.06 77.48 503.92 61.25 504.00 48.00 C 504.08 34.75 508.22 15.80 492.00 17.00 C 475.78 18.20 464.18 16.46 449.00 17.00 C 433.82 17.54 420.72 16.76 406.00 17.00 C 391.28 17.24 377.51 16.89 363.00 17.00 C 348.49 17.11 334.42 16.95 320.00 17.00 C 305.58 17.05 291.38 16.98 277.00 17.00 C 262.62 17.02 248.38 17.00 234.00 17.00 C 219.62 17.00 205.40 17.03 191.00 17.00 C 176.60 16.97 162.48 17.07 148.00 17.00 C 133.52 16.93 119.65 17.15 105.00 17.00 C 90.35 16.85 77.02 17.33 62.00 17.00 C 46.98 16.67 34.86 17.74 19.00 17.00 C 3.14 16.26 8.35 36.32 8.00 49.00 C 7.65 61.68 8.26 77.99 8.00 91.00
C 173.33 91.00 338.67 91.00 504.00 91.00
M 60.00 32.00 
C 88.21 37.84 77.25 85.91 48.33 77.67 C 19.41 69.43 30.34 25.86 60.00 32.00
M 127.00 32.00 
C 155.79 37.96 144.11 85.96 115.33 77.67 C 86.55 69.38 97.80 25.95 127.00 32.00
M 194.00 32.00 
C 223.13 37.22 212.60 85.35 183.33 77.67 C 154.06 69.99 164.42 26.70 194.00 32.00
M 475.00 51.00 
C 483.48 55.24 469.34 61.41 463.00 59.00 C 456.66 56.59 446.38 60.05 439.00 59.00 C 431.62 57.95 421.80 59.50 414.00 59.00 C 406.20 58.50 398.00 59.24 390.00 59.00 C 382.00 58.76 373.06 59.17 365.00 59.00 C 356.94 58.83 349.05 59.20 341.00 59.00 C 332.95 58.80 325.08 59.37 317.00 59.00 C 308.92 58.63 300.05 59.74 292.00 59.00 C 283.95 58.26 275.92 60.69 268.00 59.00 C 260.08 57.31 250.89 62.76 243.33 58.67 C 235.77 54.58 248.00 48.75 255.00 51.00 C 262.00 53.25 271.34 50.02 279.00 51.00 C 286.66 51.98 296.07 50.53 304.00 51.00 C 311.93 51.47 319.95 50.77 328.00 51.00 C 336.05 51.23 344.93 50.84 353.00 51.00 C 361.07 51.16 368.98 50.82 377.00 51.00 C 385.02 51.18 393.01 50.67 401.00 51.00 C 408.99 51.33 418.16 50.32 426.00 51.00 C 433.84 51.68 442.58 49.45 450.00 51.00 C 457.42 52.55 468.42 47.71 475.00 51.00 Z"/>
</g>
<g fill="#000000" fill-opacity="0.98" stroke="None">
<path d="
M 60.00 32.00 
C 30.34 25.86 19.41 69.43 48.33 77.67 C 77.25 85.91 88.21 37.84 60.00 32.00
M 56.00 39.00 
C 75.07 40.82 71.76 73.57 51.78 70.22 C 31.80 66.87 35.80 37.07 56.00 39.00 Z"/>
</g>
<g fill="#000000" fill-opacity="0.98" stroke="None">
<path d="
M 127.00 32.00 
C 97.80 25.95 86.55 69.38 115.33 77.67 C 144.11 85.96 155.79 37.96 127.00 32.00
M 123.00 39.00 
C 142.23 40.83 140.06 72.67 119.99 70.99 C 99.93 69.31 102.84 37.08 123.00 39.00 Z"/>
</g>
<g fill="#000000" fill-opacity="0.98" stroke="None">
<path d="
M 194.00 32.00 
C 164.42 26.70 154.06 69.99 183.33 77.67 C 212.60 85.35 223.13 37.22 194.00 32.00
M 191.00 39.00 
C 210.07 41.69 206.79 72.95 186.78 70.22 C 166.77 67.49 170.70 36.14 191.00 39.00 Z"/>
</g>
<g fill="#000000" fill-opacity="0.05" stroke="None">
<path d="
M 56.00 39.00 
C 35.80 37.07 31.80 66.87 51.78 70.22 C 71.76 73.57 75.07 40.82 56.00 39.00 Z"/>
</g>
<g fill="#000000" fill-opacity="0.05" stroke="None">
<path d="
M 123.00 39.00 
C 102.84 37.08 99.93 69.31 119.99 70.99 C 140.06 72.67 142.23 40.83 123.00 39.00 Z"/>
</g>
<g fill="#000000" fill-opacity="0.05" stroke="None">
<path d="
M 191.00 39.00 
C 170.70 36.14 166.77 67.49 186.78 70.22 C 206.79 72.95 210.07 41.69 191.00 39.00 Z"/>
</g>
<g fill="#000000" fill-opacity="0.98" stroke="None">
<path d="
M 475.00 51.00 
C 468.42 47.71 457.42 52.55 450.00 51.00 C 442.58 49.45 433.84 51.68 426.00 51.00 C 418.16 50.32 408.99 51.33 401.00 51.00 C 393.01 50.67 385.02 51.18 377.00 51.00 C 368.98 50.82 361.07 51.16 353.00 51.00 C 344.93 50.84 336.05 51.23 328.00 51.00 C 319.95 50.77 311.93 51.47 304.00 51.00 C 296.07 50.53 286.66 51.98 279.00 51.00 C 271.34 50.02 262.00 53.25 255.00 51.00 C 248.00 48.75 235.77 54.58 243.33 58.67 C 250.89 62.76 260.08 57.31 268.00 59.00 C 275.92 60.69 283.95 58.26 292.00 59.00 C 300.05 59.74 308.92 58.63 317.00 59.00 C 325.08 59.37 332.95 58.80 341.00 59.00 C 349.05 59.20 356.94 58.83 365.00 59.00 C 373.06 59.17 382.00 58.76 390.00 59.00 C 398.00 59.24 406.20 58.50 414.00 59.00 C 421.80 59.50 431.62 57.95 439.00 59.00 C 446.38 60.05 456.66 56.59 463.00 59.00 C 469.34 61.41 483.48 55.24 475.00 51.00 Z"/>
</g>
<g fill="#000000" fill-opacity="0.01" stroke="None">
<path d="
M 501.00 495.00 
C 507.91 485.38 504.44 470.76 505.00 457.00 C 505.56 443.24 504.75 428.18 505.00 414.00 C 505.25 399.82 504.88 384.37 505.00 370.00 C 505.12 355.63 504.93 341.47 505.00 327.00 C 505.07 312.53 504.93 297.54 505.00 283.00 C 505.07 268.46 504.88 254.64 505.00 240.00 C 505.12 225.36 504.75 210.83 505.00 196.00 C 505.25 181.17 504.45 168.25 505.00 153.00 C 505.55 137.75 503.80 125.13 505.00 109.00 C 506.20 92.87 486.70 98.36 473.00 98.00 C 459.30 97.64 443.13 98.16 429.00 98.00 C 414.87 97.84 400.33 98.07 386.00 98.00 C 371.67 97.93 356.40 98.03 342.00 98.00 C 327.60 97.97 313.40 98.01 299.00 98.00 C 284.60 97.99 270.45 98.01 256.00 98.00 C 241.55 97.99 226.47 98.00 212.00 98.00 C 197.53 98.00 183.45 98.00 169.00 98.00 C 154.55 98.00 139.41 98.00 125.00 98.00 C 110.59 98.00 96.29 98.00 82.00 98.00 C 67.71 98.00 52.04 97.99 38.00 98.00 C 23.96 98.01 5.31 93.47 7.00 110.00 C 8.69 126.53 6.22 138.56 7.00 154.00 C 7.78 169.44 6.65 182.09 7.00 197.00 C 7.35 211.91 6.83 226.32 7.00 241.00 C 7.17 255.68 6.91 269.45 7.00 284.00 C 7.09 298.55 6.93 313.54 7.00 328.00 C 7.07 342.46 6.89 356.66 7.00 371.00 C 7.11 385.34 6.79 400.88 7.00 415.00 C 7.21 429.12 6.53 444.39 7.00 458.00 C 7.47 471.61 4.30 485.12 11.00 495.00
C 173.33 495.00 338.65 495.00 501.00 495.00
M 463.00 132.00 
C 462.05 134.72 462.47 135.58 461.00 138.00
C 423.59 136.34 384.38 136.33 347.00 138.00
C 340.79 125.16 361.28 129.12 374.00 129.00 C 386.72 128.88 406.42 128.59 420.00 129.00 C 433.58 129.41 451.45 126.46 463.00 132.00
M 180.00 153.00 
C 184.37 154.49 187.50 154.96 191.00 158.00
C 196.21 151.85 205.95 139.57 212.75 146.39 C 219.56 153.22 227.67 161.19 232.80 168.25 C 237.93 175.31 222.65 182.45 221.00 190.00
C 223.47 194.82 227.25 200.43 237.00 198.00 C 246.75 195.57 249.29 208.30 248.00 215.00 C 246.71 221.70 251.16 234.92 243.75 238.75 C 236.35 242.58 224.52 236.63 222.23 246.23 C 219.94 255.83 228.30 254.64 231.77 262.23 C 235.24 269.82 229.21 275.10 223.75 279.75 C 218.30 284.41 215.35 291.04 207.99 291.99 C 200.64 292.95 195.47 284.77 191.00 280.00
C 174.92 280.52 184.50 294.45 179.07 303.07 C 173.65 311.70 158.87 307.29 149.00 308.00 C 139.13 308.71 135.36 292.26 138.00 284.00
C 134.44 283.40 131.23 281.63 128.00 280.00
C 118.60 295.63 108.25 292.68 97.25 281.75 C 86.25 270.82 81.66 260.45 98.00 251.00
C 97.16 247.19 94.84 243.84 94.00 240.00
C 88.24 239.09 72.39 243.24 71.23 233.77 C 70.07 224.30 70.29 214.67 71.00 205.00 C 71.71 195.33 87.96 198.35 94.00 198.00
C 95.64 193.05 95.78 190.72 98.00 187.00
C 90.14 181.36 82.24 172.96 87.13 166.08 C 92.02 159.21 101.58 152.25 107.00 145.00
C 116.25 143.73 121.51 150.13 128.00 158.00
C 131.14 155.58 134.00 153.96 138.00 154.00
C 133.77 133.57 143.29 129.58 161.00 130.00 C 178.71 130.42 183.02 133.85 180.00 153.00
M 311.00 173.00 
C 308.35 170.16 309.80 167.89 311.00 165.00
C 321.96 164.89 332.07 165.28 344.00 165.00 C 355.93 164.72 366.39 165.61 379.00 165.00 C 391.61 164.39 400.09 166.34 414.00 165.00 C 427.91 163.66 429.23 173.85 415.00 173.00 C 400.77 172.15 392.79 173.37 380.00 173.00 C 367.21 172.63 357.10 173.15 345.00 173.00 C 332.90 172.85 322.17 173.02 311.00 173.00
M 375.00 202.00 
C 376.33 205.27 371.38 204.87 372.00 208.00
C 352.59 206.34 331.39 206.34 312.00 208.00
C 312.52 204.92 307.77 205.36 309.00 202.00
C 318.26 196.99 331.08 199.00 342.00 199.00 C 352.92 199.00 365.74 196.99 375.00 202.00
M 463.00 202.00 
C 462.05 204.72 462.48 205.58 461.00 208.00
C 447.24 206.40 431.73 206.30 418.00 208.00
C 416.60 205.68 416.04 203.00 417.00 200.00
C 429.75 199.54 450.46 195.99 463.00 202.00
M 357.00 234.00 
C 354.70 236.87 364.58 242.92 352.97 242.97 C 341.37 243.03 326.60 243.02 315.00 243.00 C 303.40 242.98 313.29 236.90 311.00 234.00
C 325.78 235.65 342.22 235.65 357.00 234.00
M 429.00 270.00 
C 426.63 283.83 428.73 301.94 428.00 314.00
C 390.59 314.69 350.66 312.65 313.00 315.00
C 307.09 301.32 310.42 282.99 311.00 268.00
C 321.62 268.13 336.03 267.73 349.00 268.00 C 361.97 268.27 378.00 267.45 391.00 268.00 C 404.00 268.55 418.73 265.85 429.00 270.00
M 268.00 339.00 
C 267.03 348.32 269.18 362.28 268.00 372.00 C 266.82 381.72 273.10 399.97 261.00 400.00 C 248.89 400.03 237.86 399.98 226.00 400.00 C 214.14 400.02 202.74 399.99 191.00 400.00 C 179.26 400.01 167.67 399.99 156.00 400.00 C 144.33 400.01 132.60 399.97 121.00 400.00 C 109.40 400.03 97.49 399.94 86.00 400.00 C 74.51 400.06 62.71 399.87 52.00 400.00
C 49.07 381.28 52.94 359.28 50.00 340.00
C 85.06 336.11 122.87 338.32 159.00 338.00 C 195.13 337.68 232.89 337.41 268.00 339.00
M 163.00 444.00 
C 162.28 446.18 164.88 448.13 162.00 451.00
C 138.31 450.99 111.67 450.99 88.00 451.00
C 85.03 448.05 87.75 446.45 87.00 444.00
C 110.94 442.34 139.08 442.34 163.00 444.00
M 312.00 443.00 
C 313.87 445.81 313.89 448.09 312.00 451.00
C 286.64 450.99 258.33 450.99 233.00 451.00
C 230.03 448.05 232.75 446.46 232.00 444.00
C 257.33 441.67 286.39 443.68 312.00 443.00
M 461.00 443.00 
C 462.87 445.81 462.89 448.09 461.00 451.00
C 435.70 450.32 406.98 452.33 382.00 450.00
C 381.39 447.01 382.12 446.45 384.00 443.00
C 409.08 444.67 435.95 444.67 461.00 443.00 Z"/>
</g>
<g fill="#000000" fill-opacity="0.89" stroke="None">
<path d="
M 463.00 132.00 
C 451.45 126.46 433.58 129.41 420.00 129.00 C 406.42 128.59 386.72 128.88 374.00 129.00 C 361.28 129.12 340.79 125.16 347.00 138.00
C 384.38 136.33 423.59 136.34 461.00 138.00
C 462.47 135.58 462.05 134.72 463.00 132.00 Z"/>
</g>
<g fill="#000000" fill-opacity="0.98" stroke="None">
<path d="
M 180.00 153.00 
C 183.02 133.85 178.71 130.42 161.00 130.00 C 143.29 129.58 133.77 133.57 138.00 154.00
C 134.00 153.96 131.14 155.58 128.00 158.00
C 121.51 150.13 116.25 143.73 107.00 145.00
C 101.58 152.25 92.02 159.21 87.13 166.08 C 82.24 172.96 90.14 181.36 98.00 187.00
C 95.78 190.72 95.64 193.05 94.00 198.00
C 87.96 198.35 71.71 195.33 71.00 205.00 C 70.29 214.67 70.07 224.30 71.23 233.77 C 72.39 243.24 88.24 239.09 94.00 240.00
C 94.84 243.84 97.16 247.19 98.00 251.00
C 81.66 260.45 86.25 270.82 97.25 281.75 C 108.25 292.68 118.60 295.63 128.00 280.00
C 131.23 281.63 134.44 283.40 138.00 284.00
C 135.36 292.26 139.13 308.71 149.00 308.00 C 158.87 307.29 173.65 311.70 179.07 303.07 C 184.50 294.45 174.92 280.52 191.00 280.00
C 195.47 284.77 200.64 292.95 207.99 291.99 C 215.35 291.04 218.30 284.41 223.75 279.75 C 229.21 275.10 235.24 269.82 231.77 262.23 C 228.30 254.64 219.94 255.83 222.23 246.23 C 224.52 236.63 236.35 242.58 243.75 238.75 C 251.16 234.92 246.71 221.70 248.00 215.00 C 249.29 208.30 246.75 195.57 237.00 198.00 C 227.25 200.43 223.47 194.82 221.00 190.00
C 222.65 182.45 237.93 175.31 232.80 168.25 C 227.67 161.19 219.56 153.22 212.75 146.39 C 205.95 139.57 196.21 151.85 191.00 158.00
C 187.50 154.96 184.37 154.49 180.00 153.00
M 226.00 266.00 
C 220.34 271.91 216.93 279.69 209.25 284.25 C 201.57 288.80 197.50 268.68 188.93 272.93 C 180.35 277.18 169.28 278.17 173.00 292.00 C 176.72 305.83 153.39 298.05 146.00 300.00
C 146.96 290.09 147.56 279.01 137.78 276.22 C 127.99 273.44 124.43 269.77 117.75 279.75 C 111.07 289.74 107.25 280.45 100.75 275.25 C 94.26 270.05 90.61 263.77 100.25 258.25 C 109.89 252.73 103.02 245.02 101.01 236.99 C 99.00 228.97 78.01 237.27 78.01 227.99 C 78.00 218.71 74.05 201.84 87.00 205.00 C 99.95 208.16 100.83 199.60 104.77 190.77 C 108.72 181.94 97.75 177.73 93.00 172.00
C 96.28 165.19 101.11 163.54 106.25 157.25 C 111.39 150.96 115.95 155.15 121.25 161.75 C 126.54 168.35 132.25 163.36 140.02 161.02 C 147.80 158.69 146.38 145.46 146.00 138.00
C 152.16 140.31 166.42 134.77 171.67 138.33 C 176.92 141.89 169.27 158.58 177.03 159.97 C 184.78 161.36 189.28 167.25 194.75 163.75 C 200.22 160.26 203.87 149.94 209.74 154.26 C 215.62 158.58 217.69 161.72 222.75 167.25 C 227.82 172.78 220.51 176.53 215.25 182.25 C 209.98 187.96 216.52 190.38 217.78 199.22 C 219.03 208.06 232.80 201.93 238.67 205.33 C 244.54 208.73 240.14 221.82 241.00 229.00 C 241.86 236.18 221.28 229.93 219.26 234.26 C 217.23 238.59 211.99 247.51 212.79 252.23 C 213.58 256.95 223.20 262.32 226.00 266.00 Z"/>
</g>
<g fill="#D95050" fill-opacity="0.99" stroke="None">
<path d="
M 226.00 266.00 
C 223.20 262.32 213.58 256.95 212.79 252.23 C 211.99 247.51 217.23 238.59 219.26 234.26 C 221.28 229.93 241.86 236.18 241.00 229.00 C 240.14 221.82 244.54 208.73 238.67 205.33 C 232.80 201.93 219.03 208.06 217.78 199.22 C 216.52 190.38 209.98 187.96 215.25 182.25 C 220.51 176.53 227.82 172.78 222.75 167.25 C 217.69 161.72 215.62 158.58 209.74 154.26 C 203.87 149.94 200.22 160.26 194.75 163.75 C 189.28 167.25 184.78 161.36 177.03 159.97 C 169.27 158.58 176.92 141.89 171.67 138.33 C 166.42 134.77 152.16 140.31 146.00 138.00
C 146.38 145.46 147.80 158.69 140.02 161.02 C 132.25 163.36 126.54 168.35 121.25 161.75 C 115.95 155.15 111.39 150.96 106.25 157.25 C 101.11 163.54 96.28 165.19 93.00 172.00
C 97.75 177.73 108.72 181.94 104.77 190.77 C 100.83 199.60 99.95 208.16 87.00 205.00 C 74.05 201.84 78.00 218.71 78.01 227.99 C 78.01 237.27 99.00 228.97 101.01 236.99 C 103.02 245.02 109.89 252.73 100.25 258.25 C 90.61 263.77 94.26 270.05 100.75 275.25 C 107.25 280.45 111.07 289.74 117.75 279.75 C 124.43 269.77 127.99 273.44 137.78 276.22 C 147.56 279.01 146.96 290.09 146.00 300.00
C 153.39 298.05 176.72 305.83 173.00 292.00 C 169.28 278.17 180.35 277.18 188.93 272.93 C 197.50 268.68 201.57 288.80 209.25 284.25 C 216.93 279.69 220.34 271.91 226.00 266.00
M 164.00 172.00 
C 198.27 176.14 218.02 217.16 197.75 245.75 C 177.47 274.33 134.83 271.57 118.08 240.92 C 101.32 210.28 127.31 167.56 164.00 172.00 Z"/>
</g>
<g fill="#000000" fill-opacity="0.97" stroke="None">
<path d="
M 311.00 173.00 
C 322.17 173.02 332.90 172.85 345.00 173.00 C 357.10 173.15 367.21 172.63 380.00 173.00 C 392.79 173.37 400.77 172.15 415.00 173.00 C 429.23 173.85 427.91 163.66 414.00 165.00 C 400.09 166.34 391.61 164.39 379.00 165.00 C 366.39 165.61 355.93 164.72 344.00 165.00 C 332.07 165.28 321.96 164.89 311.00 165.00
C 309.80 167.89 308.35 170.16 311.00 173.00 Z"/>
</g>
<g fill="#000000" fill-opacity="0.98" stroke="None">
<path d="
M 164.00 172.00 
C 127.31 167.56 101.32 210.28 118.08 240.92 C 134.83 271.57 177.47 274.33 197.75 245.75 C 218.02 217.16 198.27 176.14 164.00 172.00
M 167.00 180.00 
C 194.91 184.53 208.30 221.57 190.23 243.23 C 172.16 264.89 134.92 262.68 123.23 234.77 C 111.54 206.86 135.63 174.90 167.00 180.00 Z"/>
</g>
<g fill="#000000" fill-opacity="0.02" stroke="None">
<path d="
M 167.00 180.00 
C 135.63 174.90 111.54 206.86 123.23 234.77 C 134.92 262.68 172.16 264.89 190.23 243.23 C 208.30 221.57 194.91 184.53 167.00 180.00 Z"/>
</g>
<g fill="#000000" fill-opacity="0.89" stroke="None">
<path d="
M 375.00 202.00 
C 365.74 196.99 352.92 199.00 342.00 199.00 C 331.08 199.00 318.26 196.99 309.00 202.00
C 307.77 205.36 312.52 204.92 312.00 208.00
C 331.39 206.34 352.59 206.34 372.00 208.00
C 371.38 204.87 376.33 205.27 375.00 202.00 Z"/>
</g>
<g fill="#000000" fill-opacity="0.89" stroke="None">
<path d="
M 463.00 202.00 
C 450.46 195.99 429.75 199.54 417.00 200.00
C 416.04 203.00 416.60 205.68 418.00 208.00
C 431.73 206.30 447.24 206.40 461.00 208.00
C 462.48 205.58 462.05 204.72 463.00 202.00 Z"/>
</g>
<g fill="#000000" fill-opacity="0.88" stroke="None">
<path d="
M 357.00 234.00 
C 342.22 235.65 325.78 235.65 311.00 234.00
C 313.29 236.90 303.40 242.98 315.00 243.00 C 326.60 243.02 341.37 243.03 352.97 242.97 C 364.58 242.92 354.70 236.87 357.00 234.00 Z"/>
</g>
<g fill="#000000" fill-opacity="0.98" stroke="None">
<path d="
M 429.00 270.00 
C 418.73 265.85 404.00 268.55 391.00 268.00 C 378.00 267.45 361.97 268.27 349.00 268.00 C 336.03 267.73 321.62 268.13 311.00 268.00
C 310.42 282.99 307.09 301.32 313.00 315.00
C 350.66 312.65 390.59 314.69 428.00 314.00
C 428.73 301.94 426.63 283.83 429.00 270.00
M 382.00 275.00 
C 382.00 285.67 382.00 296.33 382.00 307.00
C 361.00 307.00 340.00 307.00 319.00 307.00
C 319.00 296.33 319.00 285.67 319.00 275.00
C 340.00 275.00 361.00 275.00 382.00 275.00
M 420.00 307.00 
C 410.54 307.85 399.46 307.86 390.00 307.00
C 387.52 304.61 388.91 294.49 389.00 291.00 C 389.09 287.51 387.28 276.91 390.00 275.00
C 392.36 273.35 401.98 275.00 405.00 275.00 C 408.02 275.00 417.64 273.35 420.00 275.00
C 422.75 276.93 420.88 287.51 421.00 291.00 C 421.12 294.49 422.45 304.65 420.00 307.00 Z"/>
</g>
<g fill="#52BD9D" fill-opacity="0.99" stroke="None">
<path d="
M 382.00 275.00 
C 361.00 275.00 340.00 275.00 319.00 275.00
C 319.00 285.67 319.00 296.33 319.00 307.00
C 340.00 307.00 361.00 307.00 382.00 307.00
C 382.00 296.33 382.00 285.67 382.00 275.00 Z"/>
</g>
<g fill="#5A2020" fill-opacity="0.78" stroke="None">
<path d="
M 390.00 307.00 
C 389.96 307.00 390.00 306.00 390.00 306.00
C 390.00 295.67 390.00 285.33 390.00 275.00
C 387.28 276.91 389.09 287.51 389.00 291.00 C 388.91 294.49 387.52 304.61 390.00 307.00 Z"/>
</g>
<g fill="#DB5050" fill-opacity="1.00" stroke="None">
<path d="
M 390.00 306.00 
C 399.46 305.14 410.54 305.14 420.00 306.00
C 419.99 295.67 420.01 285.33 420.00 275.00
C 417.64 273.35 408.02 275.00 405.00 275.00 C 401.98 275.00 392.36 273.35 390.00 275.00
C 390.00 285.33 390.00 295.67 390.00 306.00 Z"/>
</g>
<g fill="#722929" fill-opacity="0.76" stroke="None">
<path d="
M 420.00 306.00 
C 420.00 306.50 420.00 307.00 420.00 307.00
C 422.45 304.65 421.12 294.49 421.00 291.00 C 420.88 287.51 422.75 276.93 420.00 275.00
C 420.01 285.33 419.99 295.67 420.00 306.00 Z"/>
</g>
<g fill="#D24D4D" fill-opacity="0.84" stroke="None">
<path d="
M 390.00 307.00 
C 399.46 307.86 410.54 307.85 420.00 307.00
C 420.00 307.00 420.00 306.50 420.00 306.00
C 410.54 305.14 399.46 305.14 390.00 306.00
C 390.00 306.00 389.96 307.00 390.00 307.00 Z"/>
</g>
<g fill="#000000" fill-opacity="0.99" stroke="None">
<path d="
M 268.00 339.00 
C 232.89 337.41 195.13 337.68 159.00 338.00 C 122.87 338.32 85.06 336.11 50.00 340.00
C 52.94 359.28 49.07 381.28 52.00 400.00
C 62.71 399.87 74.51 400.06 86.00 400.00 C 97.49 399.94 109.40 400.03 121.00 400.00 C 132.60 399.97 144.33 400.01 156.00 400.00 C 167.67 399.99 179.26 400.01 191.00 400.00 C 202.74 399.99 214.14 400.02 226.00 400.00 C 237.86 399.98 248.89 400.03 261.00 400.00 C 273.10 399.97 266.82 381.72 268.00 372.00 C 269.18 362.28 267.03 348.32 268.00 339.00
M 104.00 346.00 
C 106.38 349.40 102.91 356.68 104.00 361.00 C 105.09 365.32 103.46 371.22 104.00 376.00 C 104.54 380.78 103.60 387.08 104.00 392.00
C 89.00 392.00 74.00 392.00 59.00 392.00
C 55.77 389.74 57.83 374.53 58.00 370.00 C 58.17 365.47 55.88 350.19 58.33 346.33 C 60.78 342.47 76.76 345.07 81.00 345.00 C 85.24 344.93 101.77 342.81 104.00 346.00
M 155.00 392.00 
C 152.27 393.91 144.54 391.54 141.00 392.00 C 137.46 392.46 130.60 392.68 127.00 392.00 C 123.40 391.32 114.89 394.02 112.00 392.00
C 108.98 389.88 111.47 380.88 111.00 377.00 C 110.53 373.12 110.70 365.07 111.00 361.00 C 111.30 356.93 109.26 348.74 112.00 346.00
C 115.00 343.00 129.65 344.84 134.00 345.00 C 138.35 345.16 153.37 342.42 155.74 346.26 C 158.12 350.09 156.04 364.50 156.00 369.00 C 155.96 373.50 158.33 389.67 155.00 392.00
M 207.00 346.00 
C 209.38 349.40 205.91 356.68 207.00 361.00 C 208.09 365.32 206.46 371.22 207.00 376.00 C 207.54 380.78 206.60 387.08 207.00 392.00
C 192.33 392.00 177.67 392.00 163.00 392.00
C 163.67 376.83 161.67 360.34 164.00 346.00
C 166.91 343.09 180.71 344.77 185.00 345.00 C 189.29 345.23 204.68 342.68 207.00 346.00
M 260.00 346.00 
C 262.38 349.40 258.91 356.68 260.00 361.00 C 261.09 365.32 259.46 371.22 260.00 376.00 C 260.54 380.78 259.60 387.08 260.00 392.00
C 245.00 392.00 230.00 392.00 215.00 392.00
C 215.00 376.67 215.00 361.33 215.00 346.00
C 217.16 342.91 232.91 344.86 237.00 345.00 C 241.09 345.14 257.74 342.76 260.00 346.00 Z"/>
</g>
<g fill="#285F4E" fill-opacity="0.76" stroke="None">
<path d="
M 59.00 392.00 
C 59.00 376.67 59.00 361.33 59.00 346.00
C 74.00 346.00 89.00 346.00 104.00 346.00
C 101.77 342.81 85.24 344.93 81.00 345.00 C 76.76 345.07 60.78 342.47 58.33 346.33 C 55.88 350.19 58.17 365.47 58.00 370.00 C 57.83 374.53 55.77 389.74 59.00 392.00 Z"/>
</g>
<g fill="#2E6A59" fill-opacity="0.76" stroke="None">
<path d="
M 112.00 346.00 
C 126.33 346.00 140.67 346.00 155.00 346.00
C 155.00 361.33 155.00 376.67 155.00 392.00
C 158.33 389.67 155.96 373.50 156.00 369.00 C 156.04 364.50 158.12 350.09 155.74 346.26 C 153.37 342.42 138.35 345.16 134.00 345.00 C 129.65 344.84 115.00 343.00 112.00 346.00 Z"/>
</g>
<g fill="#2A6453" fill-opacity="0.76" stroke="None">
<path d="
M 164.00 346.00 
C 168.79 342.65 178.99 347.67 185.00 346.00 C 191.01 344.33 200.66 347.26 207.00 346.00
C 204.68 342.68 189.29 345.23 185.00 345.00 C 180.71 344.77 166.91 343.09 164.00 346.00 Z"/>
</g>
<g fill="#2B6554" fill-opacity="0.76" stroke="None">
<path d="
M 215.00 346.00 
C 230.00 346.00 245.00 346.00 260.00 346.00
C 257.74 342.76 241.09 345.14 237.00 345.00 C 232.91 344.86 217.16 342.91 215.00 346.00 Z"/>
</g>
<g fill="#53BE9D" fill-opacity="1.00" stroke="None">
<path d="
M 59.00 392.00 
C 74.00 392.00 89.00 392.00 104.00 392.00
C 103.60 387.08 104.54 380.78 104.00 376.00 C 103.46 371.22 105.09 365.32 104.00 361.00 C 102.91 356.68 106.38 349.40 104.00 346.00
C 89.00 346.00 74.00 346.00 59.00 346.00
C 59.00 361.33 59.00 376.67 59.00 392.00 Z"/>
</g>
<g fill="#0E241D" fill-opacity="0.87" stroke="None">
<path d="
M 112.00 392.00 
C 112.00 376.67 112.00 361.33 112.00 346.00
C 109.26 348.74 111.30 356.93 111.00 361.00 C 110.70 365.07 110.53 373.12 111.00 377.00 C 111.47 380.88 108.98 389.88 112.00 392.00 Z"/>
</g>
<g fill="#53BE9D" fill-opacity="1.00" stroke="None">
<path d="
M 112.00 392.00 
C 114.89 394.02 123.40 391.32 127.00 392.00 C 130.60 392.68 137.46 392.46 141.00 392.00 C 144.54 391.54 152.27 393.91 155.00 392.00
C 155.00 376.67 155.00 361.33 155.00 346.00
C 140.67 346.00 126.33 346.00 112.00 346.00
C 112.00 361.33 112.00 376.67 112.00 392.00 Z"/>
</g>
<g fill="#52BD9D" fill-opacity="0.99" stroke="None">
<path d="
M 207.00 346.00 
C 200.66 347.26 191.01 344.33 185.00 346.00 C 178.99 347.67 168.79 342.65 164.00 346.00
C 161.67 360.34 163.67 376.83 163.00 392.00
C 177.67 392.00 192.33 392.00 207.00 392.00
C 206.60 387.08 207.54 380.78 207.00 376.00 C 206.46 371.22 208.09 365.32 207.00 361.00 C 205.91 356.68 209.38 349.40 207.00 346.00 Z"/>
</g>
<g fill="#53BE9D" fill-opacity="1.00" stroke="None">
<path d="
M 260.00 346.00 
C 245.00 346.00 230.00 346.00 215.00 346.00
C 215.00 361.33 215.00 376.67 215.00 392.00
C 230.00 392.00 245.00 392.00 260.00 392.00
C 259.60 387.08 260.54 380.78 260.00 376.00 C 259.46 371.22 261.09 365.32 260.00 361.00 C 258.91 356.68 262.38 349.40 260.00 346.00 Z"/>
</g>
<g fill="#000000" fill-opacity="0.96" stroke="None">
<path d="
M 163.00 444.00 
C 139.08 442.34 110.94 442.34 87.00 444.00
C 87.75 446.45 85.03 448.05 88.00 451.00
C 111.67 450.99 138.31 450.99 162.00 451.00
C 164.88 448.13 162.28 446.18 163.00 444.00 Z"/>
</g>
<g fill="#000000" fill-opacity="0.96" stroke="None">
<path d="
M 312.00 443.00 
C 286.39 443.68 257.33 441.67 232.00 444.00
C 232.75 446.46 230.03 448.05 233.00 451.00
C 258.33 450.99 286.64 450.99 312.00 451.00
C 313.89 448.09 313.87 445.81 312.00 443.00 Z"/>
</g>
<g fill="#000000" fill-opacity="0.99" stroke="None">
<path d="
M 461.00 443.00 
C 435.95 444.67 409.08 444.67 384.00 443.00
C 382.12 446.45 381.39 447.01 382.00 450.00
C 406.98 452.33 435.70 450.32 461.00 451.00
C 462.89 448.09 462.87 445.81 461.00 443.00 Z"/>
</g>
<g fill="#000000" fill-opacity="0.08" stroke="None">
<path d="
M 0.00 512.00 
L 512.00 512.00
L 512.00 490.00
C 510.67 491.26 510.01 494.41 511.00 496.00
C 496.32 507.65 475.34 500.75 454.00 502.00 C 432.66 503.25 408.13 501.46 386.00 502.00 C 363.87 502.54 339.42 501.78 317.00 502.00 C 294.58 502.22 271.44 501.96 249.00 502.00 C 226.56 502.04 203.31 502.11 181.00 502.00 C 158.69 501.89 133.83 502.33 112.00 502.00 C 90.17 501.67 64.66 502.78 44.00 502.00 C 23.34 501.22 4.40 508.50 0.00 490.00
L 0.00 512.00 Z"/>
</g>
</svg>